<svg xmlns="http://www.w3.org/2000/svg" width="208" height="182" viewBox="0 0 208 182" fill="none">
<g clip-path="url(#clip0_5080_31216)">
<path d="M65.2083 60.8787C65.2047 60.3466 65.0741 59.8229 64.8276 59.3511L72.3632 51.8264C73.0308 52.2359 73.7958 52.4601 74.5792 52.4761C75.3626 52.4921 76.1361 52.2991 76.8199 51.9172C77.5037 51.5353 78.0732 50.9782 78.4696 50.3033C78.866 49.6284 79.0749 48.8602 79.0749 48.0778C79.0749 47.2954 78.866 46.5272 78.4696 45.8523C78.0732 45.1775 77.5037 44.6204 76.8199 44.2384C76.1361 43.8565 75.3626 43.6636 74.5792 43.6795C73.7958 43.6955 73.0308 43.9198 72.3632 44.3292L64.8266 36.805C65.2024 36.078 65.3055 35.2409 65.1173 34.4447C64.9292 33.6485 64.4623 32.9457 63.8007 32.4631C63.1392 31.9805 62.3267 31.7499 61.5098 31.8129C60.693 31.876 59.9256 32.2285 59.3462 32.8068C58.7668 33.3852 58.4135 34.1513 58.3501 34.9669C58.2868 35.7825 58.5175 36.5939 59.0006 37.2545C59.4837 37.9152 60.1874 38.3817 60.9848 38.5698C61.7821 38.7579 62.6205 38.6552 63.3487 38.2803L70.8852 45.8041C70.4597 46.486 70.2342 47.2734 70.2342 48.0769C70.2342 48.8804 70.4597 49.6678 70.8852 50.3497L63.3514 57.8758C62.8789 57.6292 62.3542 57.4987 61.8211 57.4952C61.1508 57.4952 60.4955 57.6937 59.9382 58.0655C59.3808 58.4373 58.9464 58.9658 58.6899 59.5842C58.4334 60.2025 58.3663 60.8829 58.4971 61.5394C58.6278 62.1958 58.9506 62.7988 59.4246 63.272C59.8986 63.7453 60.5024 64.0676 61.1599 64.1982C61.8173 64.3288 62.4987 64.2617 63.118 64.0056C63.7373 63.7495 64.2666 63.3157 64.639 62.7592C65.0114 62.2028 65.2102 61.5485 65.2102 60.8792" fill="#005040"/>
<path d="M55.8438 48.079L60.7931 53.0242V43.1348L55.8438 48.079Z" fill="#005040"/>
<path d="M142.781 60.8787C142.784 60.3466 142.915 59.8229 143.161 59.3511L135.626 51.8264C134.958 52.2359 134.193 52.4601 133.41 52.4761C132.626 52.4921 131.853 52.2991 131.169 51.9172C130.485 51.5353 129.916 50.9782 129.519 50.3033C129.123 49.6284 128.914 48.8602 128.914 48.0778C128.914 47.2954 129.123 46.5272 129.519 45.8523C129.916 45.1775 130.485 44.6204 131.169 44.2384C131.853 43.8565 132.626 43.6636 133.41 43.6795C134.193 43.6955 134.958 43.9198 135.626 44.3292L143.162 36.805C142.787 36.078 142.683 35.2409 142.872 34.4447C143.06 33.6485 143.527 32.9457 144.188 32.4631C144.85 31.9805 145.662 31.7499 146.479 31.8129C147.296 31.876 148.063 32.2285 148.643 32.8068C149.222 33.3852 149.575 34.1513 149.639 34.9669C149.702 35.7825 149.472 36.5939 148.988 37.2545C148.505 37.9152 147.802 38.3817 147.004 38.5698C146.207 38.7579 145.368 38.6552 144.64 38.2803L137.103 45.8045C137.528 46.4865 137.754 47.2739 137.754 48.0774C137.754 48.8808 137.528 49.6682 137.103 50.3502L144.639 57.8745C145.111 57.6279 145.636 57.4974 146.169 57.4938C146.84 57.4938 147.495 57.6923 148.052 58.0641C148.61 58.436 149.044 58.9645 149.3 59.5828C149.557 60.2012 149.624 60.8816 149.493 61.538C149.363 62.1944 149.04 62.7974 148.566 63.2707C148.092 63.7439 147.488 64.0662 146.83 64.1968C146.173 64.3274 145.492 64.2604 144.872 64.0042C144.253 63.7481 143.724 63.3144 143.351 62.7579C142.979 62.2014 142.78 61.5471 142.78 60.8778" fill="#005040"/>
<path d="M152.147 48.079L147.199 53.0242V43.1348L152.147 48.079Z" fill="#005040"/>
<path d="M85.634 84.5153C85.2545 84.1416 84.7914 83.8635 84.2829 83.704V73.0629C85.0452 72.8812 85.7451 72.4999 86.3106 71.9581C86.8761 71.4164 87.2866 70.7338 87.4999 69.9809C87.7132 69.2279 87.7215 68.4318 87.524 67.6745C87.3265 66.9173 86.9303 66.2264 86.3762 65.673C85.8222 65.1195 85.1303 64.7237 84.372 64.5262C83.6137 64.3287 82.8164 64.3367 82.0622 64.5495C81.308 64.7622 80.6243 65.1718 80.0815 65.7363C79.5388 66.3007 79.1566 66.9995 78.9744 67.7605H68.3164C68.1571 67.2527 67.8787 66.7902 67.5043 66.4115C67.0303 65.9383 66.4264 65.616 65.769 65.4854C65.1116 65.3549 64.4301 65.4219 63.8109 65.678C63.1916 65.9342 62.6623 66.3679 62.2899 66.9244C61.9175 67.4809 61.7188 68.1351 61.7188 68.8044C61.7188 69.4737 61.9175 70.128 62.2899 70.6845C62.6623 71.241 63.1916 71.6747 63.8109 71.9308C64.4301 72.187 65.1116 72.254 65.769 72.1234C66.4264 71.9929 67.0303 71.6706 67.5043 71.1973C67.879 70.8182 68.1577 70.3553 68.3173 69.847H78.9744C79.1563 70.6296 79.5544 71.3457 80.1234 71.9138C80.6924 72.482 81.4095 72.8794 82.1933 73.0611V83.7026C81.6845 83.8619 81.221 84.14 80.8414 84.5139C80.3674 84.9872 80.0447 85.5901 79.9139 86.2466C79.7831 86.903 79.8503 87.5834 80.1068 88.2018C80.3633 88.8201 80.7977 89.3486 81.355 89.7204C81.9123 90.0923 82.5676 90.2907 83.2379 90.2907C83.9082 90.2907 84.5634 90.0923 85.1208 89.7204C85.6781 89.3486 86.1125 88.8201 86.369 88.2018C86.6255 87.5834 86.6927 86.903 86.5619 86.2466C86.4311 85.5901 86.1084 84.9872 85.6344 84.5139" fill="#005040"/>
<path d="M69.9472 82.0757L76.9489 82.078L69.9453 75.085L69.9472 82.0757Z" fill="#005040"/>
<path d="M140.485 29.7483C140.111 29.3694 139.832 28.907 139.673 28.3993H129.016C128.834 29.1604 128.453 29.8593 127.91 30.424C127.367 30.9886 126.684 31.3985 125.93 31.6115C125.176 31.8244 124.378 31.8327 123.62 31.6355C122.862 31.4383 122.17 31.0427 121.615 30.4895C121.061 29.9362 120.665 29.2454 120.467 28.4883C120.269 27.7311 120.277 26.935 120.49 26.1819C120.703 25.4289 121.113 24.7462 121.679 24.2043C122.244 23.6623 122.944 23.2807 123.706 23.0988V12.4568C123.197 12.2978 122.734 12.0198 122.355 11.6459C121.881 11.1727 121.558 10.5697 121.428 9.91327C121.297 9.25684 121.364 8.57644 121.62 7.9581C121.877 7.33977 122.311 6.81127 122.869 6.43943C123.426 6.0676 124.081 5.86914 124.752 5.86914C125.422 5.86914 126.077 6.0676 126.634 6.43943C127.192 6.81127 127.626 7.33977 127.883 7.9581C128.139 8.57644 128.206 9.25684 128.076 9.91327C127.945 10.5697 127.622 11.1727 127.148 11.6459C126.768 12.0203 126.305 12.2986 125.796 12.4577V23.0988C126.579 23.2804 127.297 23.6779 127.866 24.246C128.435 24.8142 128.833 25.5302 129.015 26.3129H139.672C139.832 25.8048 140.11 25.342 140.485 24.963C140.959 24.4897 141.563 24.1674 142.22 24.0369C142.877 23.9063 143.559 23.9733 144.178 24.2295C144.797 24.4856 145.327 24.9193 145.699 25.4758C146.071 26.0323 146.27 26.6866 146.27 27.3559C146.27 28.0252 146.071 28.6794 145.699 29.2359C145.327 29.7924 144.797 30.2261 144.178 30.4823C143.559 30.7384 142.877 30.8054 142.22 30.6749C141.563 30.5443 140.959 30.222 140.485 29.7488" fill="#005040"/>
<path d="M138.044 14.0819L138.047 21.0731L131.043 14.0801L138.044 14.0819Z" fill="#005040"/>
<path d="M67.5066 29.7483C67.8808 29.3694 68.1594 28.907 68.3191 28.3993H78.9762C79.1582 29.1604 79.5401 29.8593 80.0827 30.424C80.6252 30.9886 81.3088 31.3985 82.0629 31.6115C82.817 31.8244 83.6144 31.8327 84.3727 31.6355C85.1311 31.4383 85.8231 31.0427 86.3773 30.4895C86.9316 29.9362 87.328 29.2454 87.5258 28.4883C87.7236 27.7311 87.7155 26.935 87.5025 26.1819C87.2895 25.4289 86.8792 24.7462 86.3139 24.2043C85.7486 23.6623 85.0488 23.2807 84.2866 23.0988V12.4568C84.7952 12.2978 85.2584 12.0198 85.6376 11.6459C86.1116 11.1727 86.4344 10.5697 86.5651 9.91327C86.6959 9.25684 86.6288 8.57644 86.3722 7.9581C86.1157 7.33977 85.6813 6.81127 85.124 6.43943C84.5667 6.0676 83.9114 5.86914 83.2411 5.86914C82.5708 5.86914 81.9156 6.0676 81.3582 6.43943C80.8009 6.81127 80.3665 7.33977 80.11 7.9581C79.8535 8.57644 79.7864 9.25684 79.9171 9.91327C80.0479 10.5697 80.3706 11.1727 80.8446 11.6459C81.2242 12.0203 81.6879 12.2986 82.197 12.4577V23.0988C81.4131 23.2802 80.6958 23.6776 80.1268 24.2458C79.5578 24.814 79.1598 25.5301 78.9781 26.3129H68.3168C68.1573 25.8048 67.8788 25.342 67.5043 24.963C67.0303 24.4897 66.4264 24.1674 65.769 24.0369C65.1116 23.9063 64.4301 23.9733 63.8109 24.2295C63.1916 24.4856 62.6623 24.9193 62.2899 25.4758C61.9175 26.0323 61.7188 26.6866 61.7188 27.3559C61.7188 28.0252 61.9175 28.6794 62.2899 29.2359C62.6623 29.7924 63.1916 30.2261 63.8109 30.4823C64.4301 30.7384 65.1116 30.8054 65.769 30.6749C66.4264 30.5443 67.0303 30.222 67.5043 29.7488" fill="#005040"/>
<path d="M69.9476 14.0819L69.9453 21.0731L76.9489 14.0801L69.9476 14.0819Z" fill="#005040"/>
<path d="M122.356 84.5153C122.736 84.1416 123.199 83.8635 123.708 83.704V73.0629C122.945 72.8812 122.245 72.4999 121.68 71.9581C121.114 71.4164 120.704 70.7338 120.491 69.9809C120.277 69.2279 120.269 68.4318 120.466 67.6745C120.664 66.9173 121.06 66.2264 121.614 65.673C122.168 65.1195 122.86 64.7237 123.618 64.5262C124.377 64.3287 125.174 64.3367 125.928 64.5495C126.682 64.7622 127.366 65.1718 127.909 65.7363C128.452 66.3007 128.834 66.9995 129.016 67.7605H139.674C139.833 67.2527 140.112 66.7902 140.486 66.4115C140.96 65.9383 141.564 65.616 142.221 65.4854C142.879 65.3549 143.56 65.4219 144.18 65.678C144.799 65.9342 145.328 66.3679 145.701 66.9244C146.073 67.4809 146.272 68.1351 146.272 68.8044C146.272 69.4737 146.073 70.128 145.701 70.6845C145.328 71.241 144.799 71.6747 144.18 71.9308C143.56 72.187 142.879 72.254 142.221 72.1234C141.564 71.9929 140.96 71.6706 140.486 71.1973C140.111 70.8182 139.833 70.3553 139.673 69.847H129.016C128.834 70.6296 128.436 71.3457 127.867 71.9138C127.298 72.482 126.581 72.8794 125.797 73.0611V83.7026C126.306 83.8619 126.769 84.14 127.149 84.5139C127.623 84.9872 127.946 85.5901 128.077 86.2466C128.207 86.903 128.14 87.5834 127.884 88.2018C127.627 88.8201 127.193 89.3486 126.635 89.7204C126.078 90.0923 125.423 90.2907 124.753 90.2907C124.082 90.2907 123.427 90.0923 122.87 89.7204C122.312 89.3486 121.878 88.8201 121.621 88.2018C121.365 87.5834 121.298 86.903 121.429 86.2466C121.559 85.5901 121.882 84.9872 122.356 84.5139" fill="#005040"/>
<path d="M138.045 82.0757L131.043 82.078L138.047 75.085L138.045 82.0757Z" fill="#005040"/>
<path d="M116.818 86.8067C116.285 86.8103 115.76 86.9406 115.288 87.1868L107.752 79.6626C108.162 78.9959 108.386 78.2321 108.402 77.4499C108.418 76.6677 108.225 75.8954 107.843 75.2126C107.46 74.5298 106.902 73.9612 106.226 73.5654C105.55 73.1696 104.781 72.9609 103.997 72.9609C103.214 72.9609 102.445 73.1696 101.769 73.5654C101.093 73.9612 100.535 74.5298 100.152 75.2126C99.7698 75.8954 99.5765 76.6677 99.5925 77.4499C99.6085 78.2321 99.8331 78.9959 100.243 79.6626L92.709 87.1891C91.9809 86.814 91.1426 86.711 90.3452 86.8989C89.5478 87.0867 88.8439 87.553 88.3606 88.2135C87.8772 88.874 87.6463 89.6853 87.7094 90.5009C87.7726 91.3165 88.1256 92.0828 88.7048 92.6613C89.2841 93.2398 90.0513 93.5926 90.8682 93.6559C91.685 93.7192 92.4976 93.4888 93.1592 93.0064C93.8209 92.524 94.2881 91.8213 94.4765 91.0252C94.6648 90.2291 94.562 89.3919 94.1865 88.6649L101.722 81.1374C102.405 81.5622 103.194 81.7874 103.998 81.7874C104.803 81.7874 105.592 81.5622 106.275 81.1374L113.81 88.6621C113.563 89.134 113.433 89.6578 113.429 90.1902C113.429 90.8595 113.628 91.5138 114 92.0703C114.373 92.6268 114.902 93.0605 115.521 93.3166C116.14 93.5727 116.822 93.6398 117.479 93.5092C118.137 93.3786 118.741 93.0563 119.215 92.5831C119.689 92.1098 120.011 91.5068 120.142 90.8504C120.273 90.194 120.206 89.5136 119.949 88.8952C119.693 88.2769 119.258 87.7484 118.701 87.3765C118.144 87.0047 117.488 86.8062 116.818 86.8062" fill="#005040"/>
<path d="M103.995 96.1578L108.947 91.2158H99.043L103.995 96.1578Z" fill="#005040"/>
<path d="M116.818 9.35135C116.285 9.3477 115.76 9.21739 115.288 8.97118L107.752 16.4954C108.162 17.1621 108.386 17.9259 108.402 18.7081C108.418 19.4903 108.225 20.2626 107.843 20.9454C107.46 21.6283 106.902 22.1969 106.226 22.5926C105.55 22.9884 104.781 23.1971 103.997 23.1971C103.214 23.1971 102.445 22.9884 101.769 22.5926C101.093 22.1969 100.535 21.6283 100.152 20.9454C99.7698 20.2626 99.5765 19.4903 99.5925 18.7081C99.6085 17.9259 99.8331 17.1621 100.243 16.4954L92.709 8.97118C91.9809 9.34634 91.1426 9.44929 90.3452 9.26145C89.5478 9.07361 88.8439 8.60733 88.3606 7.9468C87.8772 7.28627 87.6463 6.47499 87.7094 5.65937C87.7726 4.84375 88.1256 4.07754 88.7048 3.499C89.2841 2.92046 90.0513 2.56771 90.8682 2.50442C91.685 2.44114 92.4976 2.67149 93.1592 3.15389C93.8209 3.63628 94.2881 4.33896 94.4765 5.13509C94.6648 5.93123 94.562 6.76836 94.1865 7.49543L101.722 15.0206C102.405 14.5958 103.194 14.3706 103.998 14.3706C104.803 14.3706 105.592 14.5958 106.275 15.0206L113.81 7.4959C113.563 7.02406 113.433 6.5002 113.429 5.96781C113.429 5.29852 113.628 4.64426 114 4.08776C114.373 3.53126 114.902 3.09752 115.521 2.84139C116.14 2.58527 116.822 2.51825 117.479 2.64882C118.137 2.77939 118.741 3.1017 119.215 3.57496C119.689 4.04822 120.011 4.65119 120.142 5.30763C120.273 5.96406 120.206 6.64447 119.949 7.26281C119.693 7.88116 119.258 8.40967 118.701 8.78151C118.144 9.15335 117.488 9.35182 116.818 9.35182" fill="#005040"/>
<path d="M103.995 0L108.947 4.94194H99.043L103.995 0Z" fill="#005040"/>
<path d="M102.743 44.7624L103.998 47.9715L105.25 44.7638C105.536 44.0353 105.782 43.2915 105.986 42.536C107.159 38.2221 106.9 33.6444 105.246 29.4903L103.996 26.335L102.743 29.4903C101.778 31.9117 101.282 34.4942 101.281 37.1004C101.282 39.7233 101.778 42.3225 102.741 44.7624" fill="#005040"/>
<path d="M100.838 46.5884L103.998 47.9714L102.612 44.8193C102.298 44.1018 101.945 43.402 101.554 42.7232C99.3296 38.8437 95.9049 35.7892 91.794 34.0185L88.6758 32.6699L90.0241 35.7858C91.0561 38.1795 92.5341 40.3557 94.3793 42.1989C96.2377 44.0527 98.4286 45.541 100.838 46.5861" fill="#005040"/>
<path d="M100.783 49.2247L103.997 47.9716L100.784 46.7213C100.055 46.4356 99.3098 46.1903 98.5531 45.9867C94.233 44.8144 89.6486 45.073 85.4882 46.7236L82.3281 47.9716L85.4882 49.2228C87.9133 50.1869 90.4996 50.6822 93.1098 50.6825C95.7366 50.6814 98.3397 50.1869 100.783 49.2247" fill="#005040"/>
<path d="M102.613 51.1261L103.998 47.9707L100.841 49.3551C100.123 49.6684 99.4218 50.021 98.742 50.4111C94.8574 52.6331 91.7992 56.0531 90.0264 60.1577L88.6758 63.2713L91.7963 61.925C94.1937 60.8945 96.3732 59.4188 98.2191 57.5763C100.076 55.7208 101.566 53.5331 102.613 51.1274" fill="#005040"/>
<path d="M105.252 51.1798L103.997 47.9707L102.745 51.1784C102.458 51.9069 102.213 52.6507 102.009 53.4062C100.835 57.7201 101.095 62.2978 102.748 66.4519L103.998 69.6072L105.251 66.4519C106.217 64.0305 106.713 61.448 106.713 58.8418C106.712 56.219 106.217 53.6197 105.253 51.1798" fill="#005040"/>
<path d="M107.156 49.3537L103.996 47.9707L105.383 51.1228C105.696 51.8404 106.049 52.5401 106.44 53.2189C108.665 57.0978 112.09 60.1514 116.201 61.9214L119.32 63.2699L117.971 60.1541C116.939 57.7603 115.461 55.5841 113.616 53.741C111.757 51.887 109.566 50.3987 107.156 49.3537Z" fill="#005040"/>
<path d="M107.21 46.718L103.996 47.971L107.209 49.2213C107.938 49.5071 108.683 49.7523 109.44 49.956C113.76 51.1279 118.345 50.8689 122.505 49.2177L125.665 47.9697L122.505 46.7185C120.08 45.7544 117.494 45.2591 114.884 45.2588C112.257 45.2599 109.654 45.7544 107.21 46.7166" fill="#005040"/>
<path d="M105.381 44.8161L103.996 47.9715L107.153 46.5871C107.872 46.2738 108.572 45.9212 109.252 45.531C113.137 43.3093 116.195 39.8893 117.968 35.7845L119.318 32.6709L116.198 34.0172C113.8 35.0477 111.621 36.5234 109.775 38.3659C107.918 40.2214 106.428 42.4091 105.381 44.8148" fill="#005040"/>
<path d="M55.8424 170.796H55.8382C54.9302 170.166 53.9844 169.591 53.006 169.077C51.9584 168.52 51.0659 168.01 50.2781 167.512C49.5469 167.068 48.8694 166.542 48.2589 165.943C48.0517 165.754 47.8851 165.525 47.7692 165.27C47.6532 165.014 47.5903 164.738 47.5843 164.458C47.5507 164.108 47.5928 163.755 47.7077 163.423C47.8226 163.091 48.0076 162.788 48.2502 162.533C49.2223 161.684 50.806 161.713 52.587 162.605C53.5634 163.112 54.4382 163.794 55.1677 164.617L55.7168 165.236L57.4183 162.149L56.9488 161.856C56.1123 161.334 55.1991 160.947 54.2425 160.708C52.4858 160.241 50.6408 160.213 48.871 160.628C48.0974 160.81 47.3606 161.123 46.6922 161.553C46.0625 161.961 45.5304 162.502 45.1333 163.138C44.6835 163.919 44.4793 164.817 44.5474 165.715C44.6155 166.614 44.9526 167.471 45.515 168.175C46.1545 168.938 46.8974 169.608 47.7223 170.167C48.6134 170.77 49.5397 171.321 50.4961 171.815C51.411 172.291 52.2993 172.816 53.1568 173.388C53.8965 173.875 54.5589 174.47 55.1218 175.154C55.6036 175.746 55.8564 176.491 55.8341 177.254C55.8481 177.706 55.7567 178.155 55.5669 178.566C55.3771 178.977 55.0942 179.339 54.7405 179.622C54.3767 179.91 53.9615 180.127 53.5169 180.262C52.0798 180.713 50.4165 180.5 48.728 179.626C47.5515 178.984 46.5713 178.035 45.8916 176.881L45.3885 176.087L43.4194 179.325L43.2852 179.538L43.7588 179.843C44.8642 180.548 46.0688 181.084 47.3328 181.433C48.6237 181.798 49.9586 181.986 51.3004 181.989C52.2674 181.992 53.2311 181.878 54.1708 181.651C55.059 181.438 55.899 181.059 56.6466 180.535C57.3715 180.016 57.969 179.339 58.3941 178.556C58.8491 177.668 59.0751 176.68 59.0517 175.682C59.0592 174.663 58.716 173.672 58.0795 172.875C57.4369 172.079 56.6835 171.379 55.8424 170.796Z" fill="#005040"/>
<path d="M78.4673 163.69C78.4951 163.074 78.5753 162.461 78.7069 161.858C78.7425 161.677 78.8121 161.504 78.912 161.348L79.8013 160.338L73.4328 160.347L74.2569 161.331L74.261 161.335C74.367 161.49 74.4411 161.665 74.479 161.849C74.6046 162.436 74.6831 163.033 74.714 163.633C74.76 164.338 74.7885 165.143 74.8014 166.027C74.8101 166.88 74.8147 167.668 74.8147 168.369V170.275H65.9662V168.486C65.9662 167.785 65.9703 167.006 65.9837 166.127C65.9924 165.209 66.0223 164.412 66.066 163.69C66.0942 163.073 66.1745 162.46 66.306 161.857C66.3418 161.675 66.4129 161.503 66.5153 161.348L67.3959 160.338L61.0145 160.347L61.8597 161.348L61.8731 161.365C61.9722 161.511 62.0417 161.675 62.0777 161.848C62.2036 162.436 62.2825 163.033 62.3136 163.633C62.3596 164.338 62.3872 165.143 62.4005 166.026C62.4093 166.88 62.4138 167.667 62.4138 168.368V173.974C62.4138 174.674 62.4093 175.458 62.4005 176.315C62.3872 177.199 62.3614 178.004 62.3136 178.709C62.2837 179.309 62.2048 179.906 62.0777 180.493C62.0426 180.67 61.9715 180.837 61.8689 180.985H61.8731L60.9492 181.999L67.3563 181.99L66.5286 181.011V181.007C66.4185 180.849 66.3427 180.669 66.306 180.48C66.1738 179.879 66.0935 179.267 66.066 178.652C66.02 177.93 65.9924 177.133 65.9837 176.215C65.9703 175.34 65.9662 174.562 65.9662 173.861V172.168H74.8147V173.974C74.8147 174.674 74.8101 175.458 74.8014 176.315C74.7885 177.199 74.7623 178.004 74.714 178.709C74.6844 179.309 74.6058 179.906 74.479 180.493C74.4431 180.67 74.3735 180.839 74.2739 180.99L73.3675 181.995L79.7595 181.99L78.9267 181.011C78.8199 180.85 78.7459 180.67 78.7087 180.48C78.5764 179.879 78.4963 179.267 78.4691 178.652C78.4232 177.947 78.3992 177.129 78.3992 176.224V166.119C78.3992 165.209 78.4255 164.412 78.4691 163.69" fill="#005040"/>
<path d="M96.2949 161.33C96.39 161.494 96.4578 161.671 96.4954 161.857C96.6167 162.461 96.6935 163.073 96.7253 163.689C96.7777 164.407 96.8039 165.204 96.8173 166.127C96.826 166.997 96.8302 167.785 96.8302 168.486V175.458L85.9813 160.451L85.8985 160.342L81.484 160.347L82.2905 161.339L82.308 161.356C82.4053 161.511 82.4746 161.682 82.5126 161.861C82.6398 162.463 82.7185 163.075 82.7481 163.689C82.7941 164.421 82.8221 165.239 82.8221 166.118V176.224C82.8221 177.116 82.7959 177.913 82.7481 178.652C82.7209 179.267 82.6422 179.879 82.5126 180.48C82.4722 180.664 82.4015 180.839 82.3034 180.999L81.4297 182L85.6971 181.991L84.9825 181.016C84.8852 180.852 84.8159 180.672 84.7774 180.485C84.6532 179.881 84.5763 179.268 84.5475 178.652C84.4951 177.935 84.4689 177.137 84.4555 176.215C84.4468 175.349 84.4422 174.562 84.4422 173.861V164.751L96.9263 181.992H98.4516V168.486C98.4516 167.785 98.4557 166.997 98.4645 166.127C98.4778 165.221 98.504 164.425 98.5518 163.689C98.5796 163.072 98.6598 162.46 98.7914 161.857C98.8321 161.666 98.9012 161.483 98.9965 161.313L99.7373 160.338L95.5789 160.347L96.2949 161.33Z" fill="#005040"/>
<path d="M19.2014 180.837C18.7661 180.641 18.3439 180.417 17.9372 180.167C17.2696 179.735 16.6305 179.261 16.0238 178.748C15.3657 178.197 14.6985 177.577 14.0538 176.92C13.4302 176.298 12.8421 175.645 12.3013 174.988C11.8509 174.447 11.4387 173.875 11.068 173.277C10.8557 172.993 10.7151 172.663 10.6582 172.313C10.6669 172.236 10.691 172.162 10.7292 172.094C10.7673 172.027 10.8188 171.968 10.8803 171.921C11.2001 171.663 11.5413 171.433 11.9003 171.233C12.3491 170.98 12.8333 170.698 13.3387 170.393C13.8842 170.069 14.398 169.694 14.8733 169.274C15.3693 168.832 15.7877 168.309 16.1112 167.729C16.4644 167.064 16.6414 166.319 16.6253 165.566C16.6223 164.875 16.4675 164.193 16.1719 163.568C15.8421 162.895 15.3528 162.311 14.7463 161.869C14.0364 161.35 13.2349 160.969 12.3836 160.746C11.2978 160.458 10.1771 160.322 9.0538 160.342L0.0742678 160.346L0.898327 161.329L0.902467 161.334C1.00894 161.494 1.08444 161.673 1.12504 161.861C1.25199 162.463 1.33072 163.074 1.36048 163.689C1.40371 164.411 1.42992 165.207 1.42992 166.117L1.46072 173.973C1.46072 174.673 1.45613 175.457 1.44739 176.314C1.43451 177.198 1.40141 177.981 1.36048 178.708C1.33374 179.309 1.25497 179.906 1.12504 180.492C1.08974 180.669 1.01852 180.836 0.915799 180.984H0.919939L-0.00390625 181.998L6.40322 181.99L5.57548 181.01L5.57134 181.006C5.46565 180.847 5.39035 180.67 5.34923 180.484C5.22298 179.88 5.14426 179.267 5.11379 178.652C5.06781 177.917 5.03975 177.119 5.02642 176.214C5.01768 175.348 5.01355 174.561 5.01355 173.86V161.818H9.05427C10.3419 161.818 11.2813 162.175 11.9178 162.901C12.61 163.771 12.9575 164.865 12.894 165.974C12.9296 166.783 12.7282 167.585 12.3146 168.281C11.9084 168.898 11.4283 169.464 10.8849 169.965L9.35042 171.367C9.07037 171.6 8.84457 171.891 8.68876 172.22C8.53295 172.55 8.45086 172.909 8.44818 173.273C8.47587 173.983 8.64797 174.681 8.95402 175.323C9.30117 176.112 9.72001 176.868 10.2053 177.582C10.7476 178.378 11.3433 179.137 11.9881 179.854C12.6388 180.592 13.3566 181.268 14.1324 181.874L14.2938 181.996H21.8304L19.2092 180.842L19.2014 180.837Z" fill="#005040"/>
<path d="M38.1694 163.05C37.1947 162.139 36.0397 161.442 34.779 161.004C32.2896 160.116 29.5694 160.116 27.0801 161.004C25.8168 161.442 24.659 162.139 23.6809 163.05C22.6658 164.008 21.8545 165.161 21.2956 166.44C20.089 169.473 20.089 172.852 21.2956 175.885C21.8526 177.167 22.6664 178.322 23.6869 179.279C24.6688 180.177 25.8197 180.871 27.0727 181.321C29.5638 182.225 32.2938 182.225 34.7849 181.321C36.0386 180.873 37.1899 180.178 38.1713 179.279C39.1911 178.323 40.003 177.168 40.5565 175.885C41.7749 172.854 41.7749 169.471 40.5565 166.44C39.9981 165.161 39.1868 164.008 38.1713 163.05M37.6176 174.566C37.4222 175.734 36.9917 176.85 36.3521 177.847C35.8148 178.665 35.0852 179.339 34.2271 179.81C33.485 180.215 32.6589 180.442 31.8139 180.474C30.9688 180.506 30.1279 180.341 29.3573 179.993C28.5625 179.651 27.8411 179.16 27.2323 178.546C26.5084 177.809 25.9146 176.955 25.4761 176.02C24.9261 174.849 24.5409 173.606 24.3316 172.329C24.0281 170.825 23.9984 169.278 24.2437 167.763C24.4395 166.596 24.8702 165.48 25.5097 164.483C26.0464 163.662 26.7759 162.986 27.6347 162.511C28.4358 162.071 29.335 161.839 30.2494 161.837C31.0239 161.841 31.7895 162.002 32.4999 162.31C33.2909 162.65 34.0051 163.145 34.6001 163.767C35.3198 164.517 35.9167 165.376 36.3687 166.311C36.9286 167.48 37.3168 168.723 37.5215 170.002C37.823 171.506 37.8555 173.051 37.6176 174.566Z" fill="#005040"/>
<path d="M118.941 172.287H121.102C121.473 172.27 121.844 172.318 122.198 172.43C122.376 172.49 122.533 172.599 122.652 172.745C122.755 172.888 122.813 173.059 122.82 173.235C122.845 173.525 122.858 173.86 122.858 174.237V176.318C122.872 176.896 122.752 177.47 122.508 177.994C122.264 178.518 121.902 178.98 121.451 179.341C120.989 179.714 120.464 180 119.901 180.184C119.299 180.39 118.668 180.495 118.032 180.495C116.992 180.504 115.969 180.238 115.066 179.723C114.136 179.186 113.317 178.476 112.655 177.631C111.944 176.718 111.376 175.702 110.971 174.619C110.542 173.502 110.255 172.335 110.118 171.147C109.982 169.998 110.014 168.835 110.215 167.695C110.386 166.647 110.764 165.643 111.328 164.742C111.87 163.892 112.616 163.192 113.499 162.704C114.549 162.157 115.723 161.891 116.906 161.932C117.991 161.946 119.059 162.201 120.033 162.679C121.132 163.21 122.115 163.954 122.923 164.868L123.439 165.426L125.283 162.549L124.745 162.251C123.659 161.628 122.495 161.149 121.285 160.828C118.709 160.127 115.984 160.188 113.443 161.004C112.115 161.431 110.887 162.12 109.83 163.029C108.756 163.972 107.897 165.133 107.31 166.435C106.66 167.938 106.341 169.562 106.373 171.199C106.349 172.74 106.654 174.268 107.268 175.682C107.831 176.968 108.647 178.127 109.666 179.092C110.672 180.035 111.856 180.768 113.148 181.25C114.465 181.746 115.862 181.997 117.269 181.988C118.799 181.982 120.316 181.701 121.746 181.158C123.322 180.548 124.774 179.657 126.031 178.528L126.224 178.357V178.092C126.224 176.721 126.233 175.526 126.253 174.481C126.267 173.497 126.359 172.515 126.529 171.545L126.638 170.866H118.941V172.287Z" fill="#005040"/>
<path d="M207.34 163.821C206.698 162.718 205.736 161.837 204.58 161.295C203.033 160.603 201.346 160.277 199.651 160.342L190.894 160.347L191.709 161.339L191.717 161.352C191.816 161.509 191.885 161.681 191.923 161.862C192.05 162.464 192.128 163.075 192.158 163.689C192.204 164.42 192.232 165.239 192.232 166.118V176.224C192.232 177.116 192.206 177.912 192.158 178.653C192.131 179.267 192.052 179.879 191.923 180.48C191.881 180.662 191.812 180.837 191.717 180.998L190.844 181.995H195.902L197.223 181.991L196.36 180.998C196.256 180.846 196.185 180.674 196.15 180.493C196.025 179.906 195.947 179.309 195.915 178.709C195.869 178.004 195.841 177.199 195.828 176.315L195.824 176.076C195.815 175.314 195.811 174.609 195.811 173.974V161.819H199.681C200.632 161.786 201.573 162.029 202.388 162.52C203.078 162.954 203.628 163.578 203.97 164.317C204.321 165.1 204.478 165.955 204.428 166.811C204.388 167.776 204.134 168.72 203.682 169.574C203.179 170.54 202.483 171.393 201.638 172.082C200.712 172.807 199.747 173.483 198.748 174.105L196.194 175.715L199.175 175.219C200.682 174.968 202.113 174.384 203.364 173.509C204.598 172.773 205.675 171.801 206.533 170.649C207.295 169.642 207.782 168.454 207.945 167.202C208.109 166.04 207.897 164.855 207.34 163.821Z" fill="#005040"/>
<path d="M186.224 161.31L186.229 161.314C186.332 161.47 186.406 161.644 186.447 161.826C186.569 162.418 186.646 163.019 186.677 163.622C186.719 164.351 186.749 165.132 186.762 166.01C186.77 166.863 186.774 167.634 186.774 168.322V174.617C186.788 175.421 186.617 176.217 186.275 176.946C185.958 177.599 185.501 178.175 184.938 178.634C184.373 179.1 183.727 179.457 183.033 179.688C181.685 180.172 180.213 180.188 178.855 179.734C178.231 179.524 177.654 179.192 177.159 178.757C176.649 178.283 176.245 177.706 175.976 177.064C175.656 176.288 175.502 175.454 175.524 174.615V168.207C175.524 167.52 175.528 166.748 175.536 165.911C175.549 165.045 175.575 164.258 175.622 163.565C175.652 162.978 175.729 162.395 175.852 161.82C175.887 161.634 175.957 161.456 176.057 161.296L176.796 160.336L170.781 160.345L171.49 161.309C171.582 161.471 171.647 161.647 171.683 161.829C171.807 162.419 171.884 163.018 171.912 163.62C171.958 164.34 171.985 165.121 171.998 166.007C172.006 166.861 172.01 167.631 172.01 168.319V174.614C171.991 175.733 172.234 176.84 172.72 177.847C173.167 178.745 173.806 179.534 174.591 180.159C175.367 180.776 176.252 181.242 177.2 181.533C179.134 182.141 181.208 182.141 183.142 181.533C184.095 181.241 184.986 180.775 185.769 180.159C186.608 179.506 187.279 178.661 187.725 177.696C188.171 176.73 188.379 175.672 188.332 174.61V168.322C188.332 167.633 188.336 166.872 188.349 166.01C188.357 165.11 188.387 164.329 188.43 163.622C188.46 163.018 188.539 162.418 188.665 161.826C188.7 161.64 188.768 161.46 188.866 161.297L189.588 160.338L185.414 160.347L186.224 161.31Z" fill="#005040"/>
<path d="M165.807 163.052C164.831 162.14 163.674 161.443 162.412 161.005C159.924 160.118 157.205 160.118 154.717 161.005C153.453 161.442 152.295 162.139 151.318 163.052C150.303 164.011 149.492 165.163 148.933 166.442C147.72 169.474 147.72 172.855 148.933 175.887C149.491 177.169 150.304 178.324 151.324 179.281C152.308 180.178 153.459 180.871 154.711 181.323C157.2 182.227 159.929 182.227 162.419 181.323C163.675 180.875 164.828 180.179 165.809 179.277C166.829 178.322 167.64 177.168 168.194 175.887C169.407 172.854 169.407 169.471 168.194 166.437C167.635 165.16 166.824 164.009 165.809 163.052M165.252 174.573C165.055 175.739 164.625 176.854 163.986 177.85C163.449 178.667 162.719 179.341 161.861 179.812C161.118 180.215 160.292 180.441 159.448 180.473C158.603 180.504 157.762 180.341 156.991 179.996C156.197 179.653 155.476 179.161 154.866 178.548C154.143 177.812 153.551 176.958 153.114 176.023C152.561 174.852 152.176 173.61 151.97 172.332C151.67 170.827 151.639 169.281 151.878 167.766C152.074 166.598 152.505 165.482 153.144 164.485C153.684 163.666 154.414 162.989 155.273 162.514C156.075 162.075 156.974 161.845 157.888 161.844C158.661 161.846 159.425 162.006 160.135 162.313C160.927 162.652 161.642 163.148 162.239 163.769C162.961 164.518 163.557 165.379 164.003 166.318C164.565 167.485 164.954 168.727 165.16 170.005C165.462 171.509 165.493 173.055 165.252 174.571" fill="#005040"/>
<path d="M147.609 180.839C147.172 180.642 146.749 180.418 146.34 180.169C145.676 179.737 145.039 179.263 144.435 178.75C143.746 178.175 143.087 177.565 142.461 176.922C141.846 176.309 141.262 175.664 140.714 174.99C140.261 174.449 139.846 173.877 139.472 173.279C139.258 172.997 139.119 172.665 139.067 172.315C139.075 172.238 139.099 172.163 139.137 172.096C139.176 172.029 139.227 171.97 139.289 171.923C139.607 171.665 139.947 171.434 140.305 171.235C140.758 170.982 141.246 170.7 141.752 170.395C142.295 170.072 142.806 169.697 143.277 169.276C143.775 168.835 144.195 168.312 144.519 167.731C144.87 167.065 145.046 166.321 145.029 165.568C145.035 164.847 144.868 164.135 144.541 163.492C144.214 162.849 143.737 162.294 143.15 161.873C142.441 161.355 141.641 160.974 140.792 160.75C139.707 160.462 138.588 160.326 137.466 160.346L128.509 160.35L129.311 161.342L129.328 161.359C129.425 161.513 129.494 161.682 129.533 161.86C129.655 162.464 129.734 163.077 129.769 163.692C129.815 164.423 129.843 165.242 129.843 166.121C129.843 166.121 129.864 175.461 129.856 176.318C129.843 177.202 129.817 178.007 129.769 178.712C129.738 179.312 129.66 179.909 129.533 180.496C129.497 180.673 129.428 180.842 129.328 180.993L128.422 182.003L134.816 181.994L133.979 181.015C133.872 180.854 133.798 180.673 133.761 180.484C133.629 179.883 133.549 179.271 133.522 178.656C133.478 177.933 133.448 177.137 133.439 176.219C133.426 175.344 133.421 174.566 133.421 173.864V161.82H137.468C138.758 161.82 139.696 162.177 140.332 162.904C141.024 163.773 141.372 164.867 141.308 165.976C141.343 166.786 141.138 167.588 140.72 168.283C140.315 168.9 139.836 169.466 139.294 169.967L137.755 171.369C137.478 171.604 137.255 171.896 137.101 172.225C136.947 172.554 136.865 172.912 136.862 173.275C136.89 173.987 137.062 174.686 137.367 175.329C137.712 176.119 138.129 176.875 138.614 177.588C139.157 178.382 139.751 179.139 140.392 179.856C141.048 180.592 141.767 181.269 142.541 181.879L142.707 181.997H150.255L147.609 180.839Z" fill="#005040"/>
<path d="M136.909 151.917C135.028 151.922 133.168 151.516 131.46 150.729L130.908 150.459L131.128 149.99C133.448 150.225 132.388 150.227 136.169 150.189C141.299 150.137 140.767 146.094 140.767 146.094H135.859C135.859 146.094 129.203 146.143 129.203 138.216C129.203 132.663 133.347 129.759 137.445 129.759C141.45 129.759 144.354 132.528 144.354 136.34V144.074H145.077C146.476 144.074 147.974 143.086 147.974 140.318V137.063C147.974 132.763 151.064 129.759 155.488 129.759C159.181 129.759 163.125 131.857 163.125 137.755V140.318C163.125 143.126 164.097 144.074 166.97 144.074H182.947C182.036 142.777 181.421 140.897 180.785 138.934C179.59 135.248 178.344 131.435 175.129 131.435C172.575 131.435 169.676 134.328 168.063 137.019L166.838 139.056L167 133.019C170.047 130.486 173.089 129.759 175.002 129.759C181.828 129.759 183.423 134.926 184.705 139.073C185.663 142.172 186.343 144.074 188.182 144.074H189.682C191.081 144.074 192.579 143.086 192.579 140.318V137.063C192.579 132.763 195.67 129.759 200.094 129.759C203.773 129.759 207.731 132.415 207.731 138.247C207.731 144.483 204.078 146.707 200.656 146.707C199.56 146.714 198.472 146.503 197.458 146.086C196.443 145.67 195.522 145.057 194.746 144.283C194.236 144.86 193.607 145.321 192.902 145.634C192.197 145.946 191.433 146.103 190.661 146.094H166.105C163.594 146.094 161.811 145.41 160.791 144.061C160.176 144.849 159.385 145.483 158.482 145.914C157.579 146.344 156.588 146.559 155.588 146.541C154.574 146.549 153.57 146.354 152.634 145.967C151.697 145.58 150.849 145.008 150.139 144.287C149.628 144.863 149 145.322 148.296 145.634C147.592 145.945 146.829 146.102 146.059 146.093H144.255C144.255 150.209 141.283 151.916 136.91 151.916M200.093 131.346C197.409 131.346 196.223 133.274 196.131 137.796L196.075 140.786C196.066 141.664 195.854 142.529 195.456 143.312C196.319 143.921 198.063 144.809 199.649 144.809C200.215 144.819 200.776 144.697 201.287 144.454C201.799 144.211 202.246 143.853 202.596 143.407C203.524 142.241 203.999 140.435 203.999 138.041C203.999 133.649 202.033 131.347 200.093 131.347M155.488 131.347C152.803 131.347 151.617 133.276 151.526 137.797L151.465 140.787C151.457 141.665 151.247 142.529 150.851 143.313C152.056 144.128 153.459 144.602 154.913 144.684C155.492 144.695 156.066 144.575 156.591 144.332C157.117 144.089 157.581 143.73 157.948 143.283C158.907 142.125 159.395 140.34 159.395 137.986C159.395 133.425 157.369 131.349 155.489 131.349M136.951 131.349C134.955 131.349 132.933 133.638 132.933 138.016C132.933 142.482 134.95 144.075 136.838 144.075H140.844L140.796 137.063C140.796 133.485 139.357 131.349 136.951 131.349ZM176.107 151.595C175.706 151.599 175.314 151.484 174.979 151.264C174.644 151.045 174.382 150.732 174.225 150.364C174.069 149.995 174.026 149.589 174.101 149.197C174.176 148.804 174.366 148.442 174.647 148.157C174.928 147.872 175.287 147.677 175.679 147.596C176.072 147.516 176.479 147.553 176.85 147.703C177.221 147.854 177.539 148.111 177.763 148.442C177.988 148.773 178.109 149.163 178.112 149.563C178.115 150.098 177.906 150.612 177.53 150.993C177.154 151.374 176.642 151.59 176.107 151.595ZM107.53 146.094C104.379 146.094 102.43 143.878 102.321 140.162V132.035C96.171 132.035 95.0857 136.359 95.0857 138.792C95.0857 140.92 96.0542 143.41 99.7716 143.41H100.395V144.372H98.7852C93.313 144.372 92.1758 141.429 92.1758 138.879C92.1758 135.267 95.0494 130.161 102.939 130.135H105.611V140.32C105.611 143.087 107.11 144.076 108.508 144.076H114.942C113.329 142.587 112.439 140.415 112.439 137.869C112.439 132.581 116.493 129.73 120.307 129.73C124.898 129.73 127.094 131.663 127.094 131.663L126.004 134.801L125.429 134.039C124.417 132.686 122.382 131.232 120.307 131.232C117.605 131.232 116.053 133.378 116.053 137.121C116.053 140.489 118.01 144.076 121.632 144.076H125.106C127.342 144.076 127.371 144.046 127.826 143.892C128.216 143.717 128.577 143.485 128.899 143.203L128.458 146.096L107.53 146.094ZM103.319 128.728C102.783 128.728 102.268 128.515 101.889 128.136C101.509 127.758 101.296 127.244 101.296 126.708C101.296 126.172 101.509 125.658 101.889 125.279C102.268 124.9 102.783 124.688 103.319 124.688C103.856 124.688 104.371 124.9 104.75 125.279C105.13 125.658 105.343 126.172 105.343 126.708C105.343 127.244 105.13 127.758 104.75 128.136C104.371 128.515 103.856 128.728 103.319 128.728ZM97.2608 128.728C96.8608 128.731 96.4689 128.615 96.1347 128.395C95.8005 128.176 95.5391 127.862 95.3833 127.494C95.2276 127.126 95.1846 126.721 95.2598 126.328C95.335 125.936 95.5249 125.575 95.8057 125.29C96.0864 125.005 96.4454 124.81 96.8371 124.729C97.2289 124.649 97.6359 124.685 98.0067 124.835C98.3775 124.985 98.6955 125.242 98.9204 125.572C99.1453 125.902 99.2671 126.292 99.2704 126.691C99.2736 127.227 99.0638 127.743 98.6872 128.124C98.3105 128.506 97.7976 128.723 97.2608 128.728Z" fill="#005040"/>
<path d="M79.4468 130.133C79.5749 130.332 79.7034 130.531 79.8321 130.73C80.0225 130.982 80.1817 131.256 80.3062 131.547C80.3527 131.692 80.3896 131.841 80.4166 131.992C80.4878 132.367 80.5394 132.745 80.5711 133.126C80.6226 133.688 80.6497 134.252 80.6631 134.816V145.701C80.6631 149.007 79.9006 150.292 77.9435 150.292C77.3071 150.292 74.8574 149.87 74.8574 149.87L74.3125 150.936L74.9227 151.202C76.0555 151.706 77.2786 151.977 78.5188 151.998C82.1102 151.998 84.2504 149.643 84.2504 145.7V136.631C84.2504 135.529 84.2467 134.431 84.266 133.332C84.2265 132.714 84.2789 132.093 84.4214 131.49C84.6025 131.025 84.8115 130.572 85.0473 130.133H79.4468Z" fill="#005040"/>
<path d="M73.5536 144.114V136.379C73.5536 132.568 70.651 129.799 66.6452 129.799C62.5479 129.799 58.4023 132.702 58.4023 138.256C58.4023 146.182 65.0582 146.133 65.0582 146.133H69.9644C69.9644 146.133 70.4983 150.177 65.3659 150.229C61.5859 150.267 62.644 150.265 60.325 150.029L60.1047 150.498L60.6565 150.768C62.3644 151.556 64.224 151.962 66.1053 151.957C70.4781 151.957 73.4496 150.25 73.4496 146.133L73.5536 144.114ZM66.0391 144.114C64.1537 144.114 62.1336 142.521 62.1336 138.055C62.1336 133.677 64.1569 131.388 66.1522 131.388C68.5586 131.388 69.9971 133.524 69.9971 137.102L70.043 144.114H66.0391Z" fill="#005040"/>
<path d="M39.1808 128.728C39.581 128.732 39.9733 128.617 40.3081 128.398C40.6429 128.179 40.9051 127.865 41.0615 127.497C41.2179 127.13 41.2616 126.724 41.1869 126.331C41.1123 125.938 40.9227 125.577 40.6421 125.292C40.3616 125.007 40.0026 124.811 39.6108 124.73C39.2189 124.648 38.8116 124.685 38.4406 124.835C38.0695 124.985 37.7513 125.241 37.5262 125.571C37.301 125.902 37.1791 126.292 37.1758 126.691C37.1726 127.226 37.3817 127.741 37.7574 128.123C38.1331 128.504 38.6448 128.722 39.1808 128.728Z" fill="#005040"/>
<path d="M43.2305 126.691C43.2296 127.088 43.3466 127.477 43.5669 127.807C43.7872 128.138 44.1007 128.396 44.4678 128.548C44.8349 128.701 45.2391 128.741 45.6292 128.665C46.0194 128.588 46.3779 128.397 46.6594 128.116C46.9409 127.836 47.1327 127.478 47.2106 127.089C47.2885 126.7 47.249 126.296 47.097 125.929C46.9451 125.562 46.6875 125.249 46.3569 125.028C46.0264 124.807 45.6377 124.689 45.24 124.689C44.7093 124.694 44.2015 124.906 43.8258 125.281C43.4501 125.655 43.2364 126.161 43.2305 126.691Z" fill="#005040"/>
<path d="M42.1854 124.232C42.5856 124.235 42.9777 124.119 43.3119 123.899C43.6462 123.679 43.9077 123.365 44.0633 122.997C44.2189 122.629 44.2617 122.223 44.1862 121.831C44.1107 121.438 43.9203 121.077 43.6391 120.792C43.3579 120.508 42.9986 120.313 42.6066 120.233C42.2145 120.152 41.8074 120.19 41.4367 120.34C41.066 120.491 40.7483 120.748 40.5238 121.079C40.2994 121.41 40.1783 121.8 40.1758 122.199C40.1738 122.465 40.2242 122.728 40.3241 122.974C40.424 123.219 40.5716 123.443 40.7582 123.632C40.9449 123.821 41.1671 123.971 41.4119 124.074C41.6568 124.177 41.9197 124.231 42.1854 124.232Z" fill="#005040"/>
<path d="M10.8956 131.109C11.2958 131.113 11.6882 130.998 12.0229 130.778C12.3577 130.559 12.6199 130.246 12.7763 129.878C12.9328 129.51 12.9764 129.105 12.9018 128.712C12.8271 128.319 12.6375 127.958 12.357 127.672C12.0764 127.387 11.7175 127.192 11.3256 127.111C10.9337 127.029 10.5265 127.066 10.1554 127.216C9.78436 127.366 9.46614 127.622 9.24101 127.952C9.01588 128.283 8.89395 128.672 8.89066 129.072C8.88747 129.607 9.09656 130.122 9.47225 130.504C9.84795 130.885 10.3597 131.103 10.8956 131.109Z" fill="#005040"/>
<path d="M50.3844 131.458C50.4998 131.726 50.579 132.008 50.6199 132.297C50.7449 133.132 50.8117 133.974 50.8199 134.817V140.776C50.8199 143.548 49.3249 144.536 47.9256 144.536C46.1037 144.536 44.1249 142.878 44.0463 139.827V137.955C44.0463 136.899 44.0578 135.839 44.1176 134.783C44.1243 134.215 44.1948 133.649 44.3277 133.096C44.4972 132.626 44.7106 132.173 44.9651 131.743H39.2886C39.3779 131.743 39.7485 132.446 39.8198 132.551C40.1982 133.246 40.3939 134.025 40.3886 134.815C40.4714 135.843 40.4902 136.875 40.4939 138.155V140.776C40.4939 143.548 38.9989 144.536 37.5996 144.536C35.7777 144.536 33.7989 142.878 33.7203 139.118C33.6573 137.436 33.7269 135.751 33.9286 134.08C34.0742 133.673 34.2631 133.283 34.4919 132.916H28.9387L29.5048 133.793C29.8687 134.498 30.0554 135.281 30.0488 136.074C30.1146 136.816 30.1445 137.563 30.1587 138.309C30.1652 138.645 30.1682 138.983 30.1679 139.323V140.608C30.1679 143.672 27.6746 145.065 25.3602 145.065C23.1529 145.065 20.8223 143.86 20.5915 141.222V139.416C20.5915 138.023 20.6048 136.628 20.7069 135.237C20.6991 134.724 20.7975 134.215 20.9962 133.742L21.4156 132.916H15.7957C15.9999 133.232 16.2123 133.545 16.4114 133.864C17.0465 134.882 16.9794 136.44 17.0129 137.599V142.939C17.0129 147.827 14.716 150.207 9.99098 150.207C5.18736 150.207 1.7003 147.126 1.7003 142.882C1.7003 136.424 8.11202 136.424 8.11202 136.424L5.36626 133.364C2.05532 134.953 -0.00390625 138.491 -0.00390625 142.593C-0.00390625 148.129 4.17616 151.994 10.1653 151.994C15.9755 151.994 19.6065 149.443 20.4039 144.621C21.8078 146.179 24.2004 146.893 26.3889 146.893C29.039 146.893 31.9595 145.822 33.1579 143.511C33.7269 144.438 34.5239 145.204 35.473 145.737C36.4221 146.269 37.4918 146.55 38.5805 146.553C39.6044 146.584 40.6155 146.319 41.4923 145.791C42.3691 145.262 43.0744 144.491 43.5234 143.572C44.0968 144.481 44.8908 145.231 45.8318 145.752C46.7729 146.274 47.8304 146.549 48.9065 146.553C51.5391 146.553 54.3723 144.804 54.3723 140.952L54.4031 140.309V136.631C54.4031 135.575 54.416 134.519 54.4633 133.463C54.4496 132.783 54.5091 132.103 54.6408 131.436C54.8007 130.989 54.997 130.557 55.2276 130.143H49.6257C49.7734 130.333 49.9001 130.539 50.0037 130.756C50.143 130.983 50.2701 131.217 50.3844 131.457" fill="#005040"/>
</g>
<defs>
<clipPath id="clip0_5080_31216">
<rect width="208.003" height="182.002" fill="white" transform="translate(-0.00390625)"/>
</clipPath>
</defs>
</svg>